<?xml version="1.0" encoding="UTF-8" standalone="no"?>
<svg
   xmlns:dc="http://purl.org/dc/elements/1.1/"
   xmlns:cc="http://creativecommons.org/ns#"
   xmlns:rdf="http://www.w3.org/1999/02/22-rdf-syntax-ns#"
   xmlns:svg="http://www.w3.org/2000/svg"
   xmlns="http://www.w3.org/2000/svg"
   viewBox="0 0 379.28 379.28"
   height="379.28"
   width="379.28"
   xml:space="preserve"
   id="svg2"
   version="1.1"><metadata
     id="metadata8"><rdf:RDF><cc:Work
         rdf:about=""><dc:format>image/svg+xml</dc:format><dc:type
           rdf:resource="http://purl.org/dc/dcmitype/StillImage" /></cc:Work></rdf:RDF></metadata><defs
     id="defs6" /><g
     transform="matrix(1.3333333,0,0,-1.3333333,0,379.28)"
     id="g10"><g
       transform="scale(0.1)"
       id="g12"><path
         id="path14"
         style="fill:#ffffff;fill-opacity:1;fill-rule:nonzero;stroke:none"
         d="M 2839.65,5 H 5 V 2839.65 H 2839.65 V 5" /><path
         id="path16"
         style="fill:none;stroke:#ffffff;stroke-width:10;stroke-linecap:butt;stroke-linejoin:miter;stroke-miterlimit:4;stroke-dasharray:none;stroke-opacity:1"
         d="M 2839.65,5 H 5 v 2834.65 h 2834.65 z" /><path
         id="path18"
         style="fill:#47c4f3;fill-opacity:1;fill-rule:nonzero;stroke:none"
         d="m 1200.61,546.133 c -1.02,1.953 -3.15,3.23 -5.4,3.23 h -64.62 c -2.04,0 -3.9,-0.965 -5.05,-2.652 L 991.684,353.508 864.387,546.621 c -1.157,1.692 -3.059,2.742 -5.094,2.742 H 791.66 c -2.262,0 -4.297,-1.238 -5.355,-3.23 -1.11,-1.895 -0.973,-4.375 0.304,-6.238 L 954.281,283.563 V 47.5586 c 0,-1.6406 0.621,-3.1445 1.817,-4.2969 1.109,-1.2031 2.656,-1.7695 4.336,-1.7695 h 59.406 c 1.59,0 3.14,0.6172 4.25,1.7695 1.19,1.1524 1.81,2.6563 1.81,4.2969 V 284.23 l 174.35,255.575 c 1.24,1.953 1.42,4.336 0.36,6.328" /><path
         id="path20"
         style="fill:#47c4f3;fill-opacity:1;fill-rule:nonzero;stroke:none"
         d="m 1427.59,356.824 c -14.16,18.059 -32.13,32.578 -53.69,43.598 -21.77,11.148 -46.74,16.687 -74.8,16.648 -28.55,0 -53.65,-5.312 -75.25,-16.289 -21.25,-10.761 -39.26,-25.195 -53.65,-43.164 -14.38,-17.969 -25.01,-38.418 -31.87,-61.125 -6.9,-22.664 -10.31,-45.906 -10.31,-69.804 0,-23.907 3.54,-47.411 10.67,-70.555 7.12,-23.195 17.88,-43.992 32.26,-62.1486 14.34,-18.2813 32.19,-33.0156 53.12,-44.3086 l 2.92,5.3125 -2.7,-5.4492 c 21.73,-10.8868 46.78,-16.1914 74.81,-16.1914 28.06,0 53.03,5.4921 74.8,16.6406 21.56,10.9805 39.53,25.5898 53.69,43.6445 14.08,17.8832 24.75,38.4692 31.87,61.3942 7.17,22.832 10.67,46.25 10.67,70.161 0,23.894 -3.5,47.312 -10.67,70.195 -7.12,22.93 -17.79,43.465 -31.87,61.441 M 1196.63,226.688 c 0,16.82 2.16,33.285 6.51,49.308 4.29,16.024 10.66,30.234 19.2,42.805 8.46,12.351 18.95,22.262 31.83,29.695 12.65,7.356 27.44,11.074 44.93,11.074 17.43,0 32.22,-3.718 44.84,-11.074 12.88,-7.519 23.59,-17.344 32.31,-29.734 8.71,-12.578 15.23,-26.914 19.47,-43.078 4.38,-16.375 6.51,-32.969 6.51,-49.793 0,-16.731 -2.13,-33.332 -6.51,-49.661 -4.24,-16.289 -10.76,-30.546 -19.47,-43.027 -8.77,-12.48 -19.52,-22.578 -32.36,-30.273 -12.57,-7.5277 -27.36,-11.3362 -44.79,-11.3362 -16.96,0 -31.48,3.8085 -44.09,11.3362 -12.92,7.695 -23.72,17.656 -32.67,29.836 -8.5,12.742 -14.91,27.175 -19.2,43.464 -4.35,16.29 -6.51,33.106 -6.51,50.458" /><path
         id="path22"
         style="fill:#47c4f3;fill-opacity:1;fill-rule:nonzero;stroke:none"
         d="m 1712.91,108.547 c -0.88,1.598 -2.38,2.613 -4.11,2.969 -1.73,0.261 -3.55,-0.09 -4.91,-1.157 -6.6,-5.171 -13.81,-9.597 -21.87,-13.4059 -7.62,-3.5859 -15.63,-5.4023 -24.17,-5.4023 -9.3,0.043 -16.2,2.4336 -21.69,7.1289 -4.38,3.3593 -7.97,13.2343 -7.88,29.9253 v 220.606 h 87.56 c 1.59,0 3.14,0.613 4.25,1.766 1.19,1.152 1.81,2.656 1.81,4.25 v 46.836 c 0,1.589 -0.57,3.14 -1.81,4.246 -1.11,1.242 -2.66,1.855 -4.25,1.855 h -86.89 v 90.566 c 0,1.59 -0.58,3.094 -1.73,4.25 -1.15,1.153 -2.7,1.817 -4.29,1.817 h -57.24 c -1.59,0 -3.18,-0.664 -4.3,-1.77 -1.1,-1.152 -1.76,-2.707 -1.76,-4.297 v -90.566 h -54.84 c -1.68,0 -3.24,-0.613 -4.29,-1.855 -1.2,-1.106 -1.82,-2.657 -1.82,-4.246 v -46.836 c 0,-1.594 0.62,-3.137 1.82,-4.25 1.1,-1.243 2.61,-1.766 4.29,-1.766 h 54.84 V 122.664 c 0,-29.207 7.44,-52.0507 23.46,-67.2343 15.76,-14.9609 38.11,-22.1289 65.86,-22.082 20.81,0 37.27,2.4726 49.66,7.9609 11.6,5.0977 23.25,12.0391 35.02,20.7227 2.39,1.8554 3.15,5.2148 1.6,7.871 l -22.32,38.6447" /><path
         id="path24"
         style="fill:#47c4f3;fill-opacity:1;fill-rule:nonzero;stroke:none"
         d="m 2018.95,384.973 c -23.36,21.648 -55.99,32.136 -96.63,32.047 -30.32,0 -55.86,-4.598 -76.53,-14.207 -20.54,-9.7 -38.28,-24.61 -53.2,-44.661 -0.98,-1.328 -1.37,-3.015 -1.11,-4.605 0.27,-1.633 1.2,-3.059 2.52,-4.074 l 40.15,-28.196 c 2.62,-1.765 6.24,-1.277 8.23,1.282 8.9,11.164 19.7,20.144 32.63,26.914 12.79,6.726 26.64,10.047 42.14,10.136 22.79,-0.089 39.04,-6.062 50.28,-17.531 10.75,-10.887 17,-29.961 17.17,-58.113 -22.17,-0.227 -45.01,-2.254 -68.38,-5.891 -25.76,-4.109 -49.4,-11.062 -70.73,-20.972 -21.51,-9.961 -39.58,-23.594 -53.83,-40.637 -14.61,-17.527 -21.86,-40.02 -21.82,-66.348 0,-19.082 3.63,-36.172 11.06,-51.0428 7.3,-14.5625 16.87,-26.7812 28.69,-36.4687 11.77,-9.6953 25.36,-17 40.62,-21.961 15.24,-4.914 30.86,-7.2968 46.88,-7.2968 20.01,0 38.52,3.4101 55.51,10.4921 12.93,5.3516 24.79,12.6172 35.51,21.5118 l 1.77,-18.3711 c 0.3,-3.0547 2.91,-5.4883 6.06,-5.4883 h 52.05 c 1.59,0 3.1,0.6641 4.24,1.7695 1.16,1.1524 1.77,2.6953 1.77,4.336 V 278.652 c 0,48.426 -11.15,84.328 -35.05,106.321 M 1984.6,226.34 V 125.41 c -10.44,-8.762 -22.26,-16.379 -35.58,-22.969 -13.77,-6.7769 -28.73,-10.1363 -45.24,-10.1363 -7.35,0 -14.87,1.0156 -22.58,3.1445 -7.39,1.9922 -14.07,5.3128 -20.14,10.0468 -6.01,4.692 -11.02,10.578 -15.18,17.883 -3.81,6.816 -5.84,15.398 -5.84,25.937 0,16.817 4.56,29.297 13.59,39.043 9.43,10.086 21.38,17.918 36.25,23.282 15.09,5.578 31.56,9.297 49.48,11.152 15.85,1.77 30.94,2.922 45.24,3.547" /><path
         id="path26"
         style="fill:#47c4f3;fill-opacity:1;fill-rule:nonzero;stroke:none"
         d="m 1885.1,2133.87 c 107.64,109.42 174.09,261.22 174,427.18 v 117.13 c 0,73.52 -59.58,133.12 -133.1,133.12 -73.66,0 -133.19,-59.6 -133.19,-133.12 v -117.13 c -0.04,-94.72 -37.45,-178.98 -97.73,-240.52 -60.51,-61.37 -141.92,-98.4 -232.92,-98.44 -91.05,0.04 -172.36,37.07 -232.96,98.44 -60.2,61.54 -97.64,145.8 -97.64,240.52 v 117.13 c 0,73.52 -59.63,133.12 -133.146,133.12 -73.519,0 -133.187,-59.6 -133.187,-133.12 v -117.13 c -0.047,-165.96 66.394,-317.76 173.993,-427.18 77.6,-79.23 177.81,-136.99 289.76,-162.94 V 1690.66 C 1217.03,1664.72 1116.82,1606.91 1039.22,1527.64 931.621,1418.22 865.18,1266.52 865.227,1100.45 V 983.367 c 0,-73.472 59.668,-133.094 133.187,-133.094 73.516,0 133.146,59.622 133.146,133.094 v 117.083 c 0,94.73 37.44,179.09 97.64,240.57 60.6,61.39 141.91,98.4 232.96,98.49 91,-0.09 172.41,-37.1 232.92,-98.49 60.28,-61.48 97.69,-145.84 97.73,-240.57 V 983.367 c 0,-73.472 59.53,-133.094 133.19,-133.094 73.52,0 133.1,59.622 133.1,133.094 v 117.083 c 0.09,166.07 -66.36,317.77 -174,427.19 -77.59,79.27 -177.8,137.08 -289.75,163.02 v 280.27 c 111.95,25.95 212.16,83.71 289.75,162.94" /><path
         id="path28"
         style="fill:#47c4f3;fill-opacity:1;fill-rule:nonzero;stroke:none"
         d="m 1462.16,878.34 c 127.35,0 230.57,103.125 230.57,230.52 0,127.39 -103.22,230.61 -230.57,230.61 -127.35,0 -230.57,-103.22 -230.57,-230.61 0,-127.395 103.22,-230.52 230.57,-230.52" /></g></g></svg>